<svg viewBox="0 0 340 580" width="340.0" style="max-width:340px; display:block; margin:0 auto" aria-label="Flowchart: even or odd number check" height="580.0" xmlns="http://www.w3.org/2000/svg">
        <rect width="340" height="580" fill="#ffffff" rx="10" />

        
        <ellipse cx="170" cy="45" rx="60" ry="25" fill="#ffffff" stroke="#333333" stroke-width="2" />
        <text x="170" y="50" text-anchor="middle" fill="#111111" font-size="13" font-family="sans-serif" font-weight="bold">START</text>

        
        <line x1="170" y1="70" x2="170" y2="105" stroke="#333333" stroke-width="2" />
        <polygon points="164,105 170,118 176,105" fill="#ffffff" />

        
        <polygon points="55,118 285,118 270,168 70,168" fill="#ffffff" stroke="#333333" stroke-width="2" />
        <text x="170" y="148" text-anchor="middle" fill="#111111" font-size="12" font-family="sans-serif" font-weight="bold">INPUT num</text>

        
        <line x1="170" y1="168" x2="170" y2="208" stroke="#333333" stroke-width="2" />
        <polygon points="164,208 170,221 176,208" fill="#ffffff" />

        
        <polygon points="170,221 290,280 170,339 50,280" fill="#ffffff" stroke="#333333" stroke-width="2" />
        <text x="170" y="276" text-anchor="middle" fill="#111111" font-size="11" font-family="sans-serif" font-weight="bold">num MOD 2</text>
        <text x="170" y="292" text-anchor="middle" fill="#111111" font-size="11" font-family="sans-serif" font-weight="bold">= 0 ?</text>

        
        <text x="58" y="276" text-anchor="middle" fill="#111111" font-size="11" font-family="sans-serif" font-weight="bold">YES</text>

        
        <text x="285" y="276" text-anchor="middle" fill="#111111" font-size="11" font-family="sans-serif" font-weight="bold">NO</text>

        
        <line x1="50" y1="280" x2="20" y2="280" stroke="#333333" stroke-width="2" />
        <line x1="20" y1="280" x2="20" y2="390" stroke="#333333" stroke-width="2" />
        <polygon points="14,390 20,403 26,390" fill="#ffffff" />

        
        <polygon points="20,403 100,403 85,443 5,443" fill="#ffffff" stroke="#333333" stroke-width="2" />
        <text x="52" y="429" text-anchor="middle" fill="#111111" font-size="12" font-family="sans-serif" font-weight="bold">OUTPUT</text>
        <text x="52" y="443" text-anchor="middle" fill="#111111" font-size="11" font-family="sans-serif">"Even"</text>

        
        <line x1="45" y1="443" x2="45" y2="510" stroke="#333333" stroke-width="2" />
        <line x1="45" y1="510" x2="170" y2="510" stroke="#333333" stroke-width="2" />
        <polygon points="164,504 170,517 176,504" fill="#ffffff" />

        
        <line x1="290" y1="280" x2="320" y2="280" stroke="#333333" stroke-width="2" />
        <line x1="320" y1="280" x2="320" y2="390" stroke="#333333" stroke-width="2" />
        <polygon points="314,390 320,403 326,390" fill="#ffffff" />

        
        <polygon points="250,403 330,403 315,443 235,443" fill="#ffffff" stroke="#333333" stroke-width="2" />
        <text x="282" y="429" text-anchor="middle" fill="#111111" font-size="12" font-family="sans-serif" font-weight="bold">OUTPUT</text>
        <text x="282" y="443" text-anchor="middle" fill="#111111" font-size="11" font-family="sans-serif">"Odd"</text>

        
        <line x1="282" y1="443" x2="282" y2="510" stroke="#333333" stroke-width="2" />
        <line x1="282" y1="510" x2="170" y2="510" stroke="#333333" stroke-width="2" />

        
        <line x1="170" y1="517" x2="170" y2="540" stroke="#333333" stroke-width="2" />
        <polygon points="164,540 170,553 176,540" fill="#ffffff" />

        
        <ellipse cx="170" cy="560" rx="60" ry="22" fill="#ffffff" stroke="#333333" stroke-width="2" />
        <text x="170" y="565" text-anchor="middle" fill="#111111" font-size="13" font-family="sans-serif" font-weight="bold">END</text>
      </svg>