<svg viewBox="0 0 340 760" width="340.0" style="max-width:100%;display:block" aria-label="Flowchart: nested decisions" height="760.0" xmlns="http://www.w3.org/2000/svg">
        <rect width="340" height="760" fill="#ffffff" rx="10" />
        
        <ellipse cx="170" cy="42" rx="58" ry="24" fill="#ffffff" stroke="#333333" stroke-width="2" />
        <text x="170" y="48" text-anchor="middle" fill="#111111" font-size="14" font-family="sans-serif" font-weight="bold">START</text>
        <line x1="170" y1="66" x2="170" y2="92" stroke="#333333" stroke-width="2" />
        <polygon points="164,90 170,102 176,90" fill="#ffffff" />
        
        <polygon points="170,102 258,148 170,194 82,148" fill="#ffffff" stroke="#333333" stroke-width="2" />
        <text x="170" y="153" text-anchor="middle" fill="#111111" font-size="13" font-family="sans-serif" font-weight="bold">Age &gt;= 18 ?</text>
        
        <line x1="82" y1="148" x2="30" y2="148" stroke="#333333" stroke-width="2" />
        <text x="56" y="142" text-anchor="middle" fill="#111111" font-size="12" font-family="sans-serif" font-weight="bold">False</text>
        <line x1="30" y1="148" x2="30" y2="655" stroke="#333333" stroke-width="2" stroke-dasharray="6 3" />
        <line x1="30" y1="655" x2="154" y2="655" stroke="#333333" stroke-width="2" />
        
        <line x1="258" y1="148" x2="310" y2="148" stroke="#333333" stroke-width="2" />
        <text x="286" y="142" text-anchor="middle" fill="#111111" font-size="12" font-family="sans-serif" font-weight="bold">True</text>
        <line x1="310" y1="148" x2="310" y2="226" stroke="#333333" stroke-width="2" />
        <line x1="310" y1="226" x2="258" y2="226" stroke="#333333" stroke-width="2" />
        <polygon points="252,220 258,232 264,220" fill="#ffffff" />
        
        <polygon points="170,232 258,278 170,324 82,278" fill="#ffffff" stroke="#333333" stroke-width="2" />
        <text x="170" y="272" text-anchor="middle" fill="#111111" font-size="12" font-family="sans-serif" font-weight="bold">bHasLicence</text>
        <text x="170" y="288" text-anchor="middle" fill="#111111" font-size="12" font-family="sans-serif" font-weight="bold">= True ?</text>
        
        <line x1="82" y1="278" x2="50" y2="278" stroke="#333333" stroke-width="2" />
        <text x="66" y="272" text-anchor="middle" fill="#111111" font-size="12" font-family="sans-serif" font-weight="bold">False</text>
        <line x1="50" y1="278" x2="50" y2="430" stroke="#333333" stroke-width="2" />
        <polygon points="44,428 50,440 56,428" fill="#ffffff" />
        <rect x="10" y="440" width="140" height="44" rx="4" fill="#ffffff" stroke="#333333" stroke-width="2" />
        <text x="80" y="467" text-anchor="middle" fill="#111111" font-size="13" font-family="sans-serif" font-weight="bold">bDrive := False</text>
        <line x1="150" y1="462" x2="175" y2="462" stroke="#333333" stroke-width="2" />
        <polygon points="173,456 185,462 173,468" fill="#ffffff" />
        
        <line x1="258" y1="278" x2="290" y2="278" stroke="#333333" stroke-width="2" />
        <text x="276" y="272" text-anchor="middle" fill="#111111" font-size="12" font-family="sans-serif" font-weight="bold">True</text>
        <line x1="290" y1="278" x2="290" y2="430" stroke="#333333" stroke-width="2" />
        <polygon points="284,428 290,440 296,428" fill="#ffffff" />
        <rect x="190" y="440" width="140" height="44" rx="4" fill="#ffffff" stroke="#333333" stroke-width="2" />
        <text x="260" y="467" text-anchor="middle" fill="#111111" font-size="13" font-family="sans-serif" font-weight="bold">bDrive := True</text>
        <line x1="190" y1="462" x2="185" y2="462" stroke="#333333" stroke-width="2" />
        
        <circle cx="185" cy="462" r="7" fill="#ffffff" stroke="#333333" stroke-width="2" />
        <line x1="185" y1="469" x2="185" y2="520" stroke="#333333" stroke-width="2" />
        <line x1="185" y1="520" x2="170" y2="520" stroke="#333333" stroke-width="2" />
        <line x1="170" y1="520" x2="170" y2="548" stroke="#333333" stroke-width="2" />
        
        <circle cx="170" cy="655" r="7" fill="#ffffff" stroke="#333333" stroke-width="2" />
        <line x1="170" y1="548" x2="170" y2="648" stroke="#333333" stroke-width="2" />
        <line x1="170" y1="662" x2="170" y2="692" stroke="#333333" stroke-width="2" />
        <polygon points="164,690 170,702 176,690" fill="#ffffff" />
        
        <ellipse cx="170" cy="724" rx="58" ry="24" fill="#ffffff" stroke="#333333" stroke-width="2" />
        <text x="170" y="730" text-anchor="middle" fill="#111111" font-size="14" font-family="sans-serif" font-weight="bold">END</text>
      </svg>